{
	"asset":{
		"generator":"Khronos glTF Blender I/O v3.6.27",
		"version":"2.0"
	},
	"scene":0,
	"scenes":[
		{
			"name":"Scene",
			"nodes":[
				2,
				5,
				6
			]
		}
	],
	"nodes":[
		{
			"mesh":0,
			"name":"Icosphere.008",
			"scale":[
				0.8915477991104126,
				0.8915477991104126,
				0.8915477991104126
			]
		},
		{
			"mesh":1,
			"name":"Icosphere.020",
			"scale":[
				0.8915477991104126,
				0.8915477991104126,
				0.8915477991104126
			]
		},
		{
			"children":[
				0,
				1
			],
			"mesh":2,
			"name":"Cube"
		},
		{
			"mesh":3,
			"name":"Icosphere.001",
			"scale":[
				0.8915477991104126,
				0.8915477991104126,
				0.8915477991104126
			]
		},
		{
			"mesh":4,
			"name":"Icosphere.002",
			"scale":[
				0.8915477991104126,
				0.8915477991104126,
				0.8915477991104126
			]
		},
		{
			"children":[
				3,
				4
			],
			"mesh":5,
			"name":"Cube.001",
			"rotation":[
				0,
				0,
				-1,
				7.549790126404332e-08
			]
		},
		{
			"mesh":6,
			"name":"Sphere",
			"scale":[
				0.23999999463558197,
				0.23999999463558197,
				0.23999999463558197
			]
		}
	],
	"animations":[
		{
			"channels":[
				{
					"sampler":0,
					"target":{
						"node":0,
						"path":"rotation"
					}
				}
			],
			"name":"Icosphere.008Action.003",
			"samplers":[
				{
					"input":25,
					"interpolation":"LINEAR",
					"output":26
				}
			]
		},
		{
			"channels":[
				{
					"sampler":0,
					"target":{
						"node":1,
						"path":"rotation"
					}
				}
			],
			"name":"Icosphere.020Action.001",
			"samplers":[
				{
					"input":25,
					"interpolation":"LINEAR",
					"output":27
				}
			]
		},
		{
			"channels":[
				{
					"sampler":0,
					"target":{
						"node":3,
						"path":"rotation"
					}
				}
			],
			"name":"Icosphere.008Action.005",
			"samplers":[
				{
					"input":25,
					"interpolation":"LINEAR",
					"output":28
				}
			]
		},
		{
			"channels":[
				{
					"sampler":0,
					"target":{
						"node":4,
						"path":"rotation"
					}
				}
			],
			"name":"Icosphere.020Action.003",
			"samplers":[
				{
					"input":25,
					"interpolation":"LINEAR",
					"output":29
				}
			]
		}
	],
	"materials":[
		{
			"doubleSided":true,
			"name":"Material.002",
			"pbrMetallicRoughness":{
				"baseColorFactor":[
					0.800000011920929,
					0.800000011920929,
					0.800000011920929,
					1
				],
				"metallicFactor":0,
				"roughnessFactor":0.5
			}
		},
		{
			"doubleSided":true,
			"name":"hide",
			"pbrMetallicRoughness":{
				"baseColorFactor":[
					0.800000011920929,
					0.800000011920929,
					0.800000011920929,
					1
				],
				"metallicFactor":0,
				"roughnessFactor":0.5
			}
		},
		{
			"doubleSided":true,
			"name":"pearl",
			"pbrMetallicRoughness":{
				"baseColorFactor":[
					0.800000011920929,
					0.800000011920929,
					0.800000011920929,
					1
				],
				"metallicFactor":0,
				"roughnessFactor":0.5
			}
		}
	],
	"meshes":[
		{
			"name":"Icosphere.008",
			"primitives":[
				{
					"attributes":{
						"POSITION":0,
						"NORMAL":1,
						"TEXCOORD_0":2
					},
					"indices":3,
					"material":0
				}
			]
		},
		{
			"name":"Icosphere.072",
			"primitives":[
				{
					"attributes":{
						"POSITION":4,
						"NORMAL":5,
						"TEXCOORD_0":6
					},
					"indices":7
				}
			]
		},
		{
			"name":"Cube.001",
			"primitives":[
				{
					"attributes":{
						"POSITION":8,
						"NORMAL":9,
						"TEXCOORD_0":10
					},
					"indices":11,
					"material":1
				}
			]
		},
		{
			"name":"Icosphere.085",
			"primitives":[
				{
					"attributes":{
						"POSITION":12,
						"NORMAL":13,
						"TEXCOORD_0":14
					},
					"indices":3,
					"material":0
				}
			]
		},
		{
			"name":"Icosphere.086",
			"primitives":[
				{
					"attributes":{
						"POSITION":15,
						"NORMAL":16,
						"TEXCOORD_0":17
					},
					"indices":7
				}
			]
		},
		{
			"name":"Cube.002",
			"primitives":[
				{
					"attributes":{
						"POSITION":18,
						"NORMAL":19,
						"TEXCOORD_0":20
					},
					"indices":11,
					"material":1
				}
			]
		},
		{
			"name":"Sphere.003",
			"primitives":[
				{
					"attributes":{
						"POSITION":21,
						"NORMAL":22,
						"TEXCOORD_0":23
					},
					"indices":24,
					"material":2
				}
			]
		}
	],
	"accessors":[
		{
			"bufferView":0,
			"componentType":5126,
			"count":10830,
			"max":[
				0.9157422780990601,
				1.0332071781158447,
				0.9729684591293335
			],
			"min":[
				-0.9759280681610107,
				0.28245580196380615,
				-0.9729691743850708
			],
			"type":"VEC3"
		},
		{
			"bufferView":1,
			"componentType":5126,
			"count":10830,
			"type":"VEC3"
		},
		{
			"bufferView":2,
			"componentType":5126,
			"count":10830,
			"type":"VEC2"
		},
		{
			"bufferView":3,
			"componentType":5123,
			"count":15960,
			"type":"SCALAR"
		},
		{
			"bufferView":4,
			"componentType":5126,
			"count":3913,
			"max":[
				0.9687070846557617,
				1.0301834344863892,
				1.0291457176208496
			],
			"min":[
				-1.035407304763794,
				0.2845441401004791,
				-1.0291348695755005
			],
			"type":"VEC3"
		},
		{
			"bufferView":5,
			"componentType":5126,
			"count":3913,
			"type":"VEC3"
		},
		{
			"bufferView":6,
			"componentType":5126,
			"count":3913,
			"type":"VEC2"
		},
		{
			"bufferView":7,
			"componentType":5123,
			"count":20520,
			"type":"SCALAR"
		},
		{
			"bufferView":8,
			"componentType":5126,
			"count":24,
			"max":[
				1,
				1,
				1
			],
			"min":[
				-1,
				-1,
				-1
			],
			"type":"VEC3"
		},
		{
			"bufferView":9,
			"componentType":5126,
			"count":24,
			"type":"VEC3"
		},
		{
			"bufferView":10,
			"componentType":5126,
			"count":24,
			"type":"VEC2"
		},
		{
			"bufferView":11,
			"componentType":5123,
			"count":36,
			"type":"SCALAR"
		},
		{
			"bufferView":12,
			"componentType":5126,
			"count":10830,
			"max":[
				0.9157422780990601,
				1.0332071781158447,
				0.9729684591293335
			],
			"min":[
				-0.9759280681610107,
				0.28245580196380615,
				-0.9729691743850708
			],
			"type":"VEC3"
		},
		{
			"bufferView":13,
			"componentType":5126,
			"count":10830,
			"type":"VEC3"
		},
		{
			"bufferView":14,
			"componentType":5126,
			"count":10830,
			"type":"VEC2"
		},
		{
			"bufferView":15,
			"componentType":5126,
			"count":3913,
			"max":[
				0.9687070846557617,
				1.0301834344863892,
				1.0291457176208496
			],
			"min":[
				-1.035407304763794,
				0.2845441401004791,
				-1.0291348695755005
			],
			"type":"VEC3"
		},
		{
			"bufferView":16,
			"componentType":5126,
			"count":3913,
			"type":"VEC3"
		},
		{
			"bufferView":17,
			"componentType":5126,
			"count":3913,
			"type":"VEC2"
		},
		{
			"bufferView":18,
			"componentType":5126,
			"count":24,
			"max":[
				1,
				1,
				1
			],
			"min":[
				-1,
				-1,
				-1
			],
			"type":"VEC3"
		},
		{
			"bufferView":19,
			"componentType":5126,
			"count":24,
			"type":"VEC3"
		},
		{
			"bufferView":20,
			"componentType":5126,
			"count":24,
			"type":"VEC2"
		},
		{
			"bufferView":21,
			"componentType":5126,
			"count":2658,
			"max":[
				0.9988397359848022,
				1,
				0.9980630278587341
			],
			"min":[
				-0.9988391995429993,
				-1,
				-0.9990975856781006
			],
			"type":"VEC3"
		},
		{
			"bufferView":22,
			"componentType":5126,
			"count":2658,
			"type":"VEC3"
		},
		{
			"bufferView":23,
			"componentType":5126,
			"count":2658,
			"type":"VEC2"
		},
		{
			"bufferView":24,
			"componentType":5123,
			"count":14904,
			"type":"SCALAR"
		},
		{
			"bufferView":25,
			"componentType":5126,
			"count":250,
			"max":[
				4.166666666666667
			],
			"min":[
				0.016666666666666666
			],
			"type":"SCALAR"
		},
		{
			"bufferView":26,
			"componentType":5126,
			"count":250,
			"type":"VEC4"
		},
		{
			"bufferView":27,
			"componentType":5126,
			"count":250,
			"type":"VEC4"
		},
		{
			"bufferView":28,
			"componentType":5126,
			"count":250,
			"type":"VEC4"
		},
		{
			"bufferView":29,
			"componentType":5126,
			"count":250,
			"type":"VEC4"
		}
	],
	"bufferViews":[
		{
			"buffer":0,
			"byteLength":129960,
			"byteOffset":0,
			"target":34962
		},
		{
			"buffer":0,
			"byteLength":129960,
			"byteOffset":129960,
			"target":34962
		},
		{
			"buffer":0,
			"byteLength":86640,
			"byteOffset":259920,
			"target":34962
		},
		{
			"buffer":0,
			"byteLength":31920,
			"byteOffset":346560,
			"target":34963
		},
		{
			"buffer":0,
			"byteLength":46956,
			"byteOffset":378480,
			"target":34962
		},
		{
			"buffer":0,
			"byteLength":46956,
			"byteOffset":425436,
			"target":34962
		},
		{
			"buffer":0,
			"byteLength":31304,
			"byteOffset":472392,
			"target":34962
		},
		{
			"buffer":0,
			"byteLength":41040,
			"byteOffset":503696,
			"target":34963
		},
		{
			"buffer":0,
			"byteLength":288,
			"byteOffset":544736,
			"target":34962
		},
		{
			"buffer":0,
			"byteLength":288,
			"byteOffset":545024,
			"target":34962
		},
		{
			"buffer":0,
			"byteLength":192,
			"byteOffset":545312,
			"target":34962
		},
		{
			"buffer":0,
			"byteLength":72,
			"byteOffset":545504,
			"target":34963
		},
		{
			"buffer":0,
			"byteLength":129960,
			"byteOffset":545576,
			"target":34962
		},
		{
			"buffer":0,
			"byteLength":129960,
			"byteOffset":675536,
			"target":34962
		},
		{
			"buffer":0,
			"byteLength":86640,
			"byteOffset":805496,
			"target":34962
		},
		{
			"buffer":0,
			"byteLength":46956,
			"byteOffset":892136,
			"target":34962
		},
		{
			"buffer":0,
			"byteLength":46956,
			"byteOffset":939092,
			"target":34962
		},
		{
			"buffer":0,
			"byteLength":31304,
			"byteOffset":986048,
			"target":34962
		},
		{
			"buffer":0,
			"byteLength":288,
			"byteOffset":1017352,
			"target":34962
		},
		{
			"buffer":0,
			"byteLength":288,
			"byteOffset":1017640,
			"target":34962
		},
		{
			"buffer":0,
			"byteLength":192,
			"byteOffset":1017928,
			"target":34962
		},
		{
			"buffer":0,
			"byteLength":31896,
			"byteOffset":1018120,
			"target":34962
		},
		{
			"buffer":0,
			"byteLength":31896,
			"byteOffset":1050016,
			"target":34962
		},
		{
			"buffer":0,
			"byteLength":21264,
			"byteOffset":1081912,
			"target":34962
		},
		{
			"buffer":0,
			"byteLength":29808,
			"byteOffset":1103176,
			"target":34963
		},
		{
			"buffer":0,
			"byteLength":1000,
			"byteOffset":1132984
		},
		{
			"buffer":0,
			"byteLength":4000,
			"byteOffset":1133984
		},
		{
			"buffer":0,
			"byteLength":4000,
			"byteOffset":1137984
		},
		{
			"buffer":0,
			"byteLength":4000,
			"byteOffset":1141984
		},
		{
			"buffer":0,
			"byteLength":4000,
			"byteOffset":1145984
		}
	],
	"buffers":[
		{
			"byteLength":1149984,
			"uri":"data:application/octet-stream;base64,"
		}
	]
}
